<svg width="40" height="39" viewBox="0 0 40 39" fill="none" xmlns="http://www.w3.org/2000/svg">
<path d="M0 21.9502V21.1444C0 18.1 0.434227 15.2987 1.30268 12.7404C2.17114 10.1565 3.44828 7.91795 5.1341 6.02481C6.81992 4.13166 8.90166 2.66064 11.3793 1.61173C13.857 0.537244 16.7178 0 19.9617 0C23.2312 0 26.1047 0.537244 28.5824 1.61173C31.0856 2.66064 33.1801 4.13166 34.8659 6.02481C36.5517 7.91795 37.8289 10.1565 38.6973 12.7404C39.5658 15.2987 40 18.1 40 21.1444V21.9502C40 24.969 39.5658 27.7704 38.6973 30.3543C37.8289 32.9126 36.5517 35.1511 34.8659 37.0698C31.9464 39 31.9464 39 28.5824 39C26.7433 39 23.4202 39 20.1762 39C16.9323 39 14.0127 39 11.3793 39C8.40613 39 7.89243 39 5.1341 37.0698C3.44828 35.1511 2.17114 32.9126 1.30268 30.3543C0.434227 27.7704 0 24.969 0 21.9502ZM12.9119 21.1444V21.9502C12.9119 23.5108 13.0268 24.969 13.2567 26.3249C13.4866 27.6808 13.8697 28.8705 14.4061 29.8938C14.9425 30.8915 14.2912 30.5001 16.2529 30.5001C18.2146 30.5001 18.7969 30.5001 20.1762 30.5001C21.53 30.5001 22.1379 30.5001 24.0996 30.5001C26.0613 30.5001 25.0575 30.8915 25.5939 29.8938C26.1303 28.8705 26.5134 27.6808 26.7433 26.3249C26.9732 24.969 27.0881 23.5108 27.0881 21.9502V21.1444C27.0881 19.635 26.9732 18.2151 26.7433 16.8848C26.5134 15.5289 26.1303 14.3393 25.5939 13.316C25.0575 12.2671 24.3295 11.4484 23.41 10.86C22.4904 10.2716 21.341 9.97738 19.9617 9.97738C18.6079 9.97738 17.4713 10.2716 16.5517 10.86C15.6577 11.4484 14.9425 12.2671 14.4061 13.316C13.8697 14.3393 13.4866 15.5289 13.2567 16.8848C13.0268 18.2151 12.9119 19.635 12.9119 21.1444Z" fill="#D9D8D7"/>
<path d="M24.0996 16.7467C24.0996 18.9169 22.3431 18.7114 20.1762 18.7114C18.0094 18.7114 16.2529 18.9169 16.2529 16.7467C16.2529 14.5764 18.0094 12.8171 20.1762 12.8171C22.3431 12.8171 24.0996 14.5764 24.0996 16.7467Z" fill="#D9D8D7"/>
</svg>
