<svg width="63" height="60" viewBox="0 0 63 60" fill="none" xmlns="http://www.w3.org/2000/svg">
<path d="M0 33.7696V32.5298C0 27.8462 0.683908 23.5364 2.05172 19.6005C3.41954 15.6253 5.43103 12.1815 8.08621 9.26893C10.7414 6.3564 14.0201 4.09329 17.9224 2.47959C21.8247 0.826529 26.3305 0 31.4397 0C36.5891 0 41.1149 0.826529 45.0172 2.47959C48.9598 4.09329 52.2586 6.3564 54.9138 9.26893C57.569 12.1815 59.5805 15.6253 60.9483 19.6005C62.3161 23.5364 63 27.8462 63 32.5298V33.7696C63 38.4139 62.3161 42.7237 60.9483 46.6989C59.5805 50.6347 57.569 54.0786 54.9138 57.0305C50.3155 60 50.3155 60 45.0172 60C42.1207 60 36.8868 60 31.7776 60C26.6684 60 22.07 60 17.9224 60C13.2397 60 12.4306 60 8.08621 57.0305C5.43103 54.0786 3.41954 50.6347 2.05172 46.6989C0.683908 42.7237 0 38.4139 0 33.7696ZM20.3362 32.5298V33.7696C20.3362 36.1705 20.5172 38.4139 20.8793 40.4999C21.2414 42.5859 21.8448 44.4161 22.6897 45.9904C23.5345 47.5254 22.5086 46.9232 25.5983 46.9232C28.6879 46.9232 29.6052 46.9232 31.7776 46.9232C33.9098 46.9232 34.8672 46.9232 37.9569 46.9232C41.0466 46.9232 39.4655 47.5254 40.3103 45.9904C41.1552 44.4161 41.7586 42.5859 42.1207 40.4999C42.4828 38.4139 42.6638 36.1705 42.6638 33.7696V32.5298C42.6638 30.2077 42.4828 28.0233 42.1207 25.9766C41.7586 23.8906 41.1552 22.0605 40.3103 20.4861C39.4655 18.8724 38.319 17.6129 36.8707 16.7077C35.4224 15.8024 33.6121 15.3498 31.4397 15.3498C29.3075 15.3498 27.5172 15.8024 26.069 16.7077C24.6609 17.6129 23.5345 18.8724 22.6897 20.4861C21.8448 22.0605 21.2414 23.8906 20.8793 25.9766C20.5172 28.0233 20.3362 30.2077 20.3362 32.5298Z" fill="#F26241"/>
<path d="M37.9569 25.7641C37.9569 29.1029 35.1903 28.7868 31.7776 28.7868C28.3648 28.7868 25.5983 29.1029 25.5983 25.7641C25.5983 22.4253 28.3648 19.7186 31.7776 19.7186C35.1903 19.7186 37.9569 22.4253 37.9569 25.7641Z" fill="#F26241"/>
</svg>
